<svg width="296.022" height="50" xmlns="http://www.w3.org/2000/svg">
 <style type="text/css">.st0{clip-path:url(#SVGID_2_);}</style>

 <g>
  <title>background</title>
  <rect x="-1" y="-1" width="298.022" height="52" id="canvas_background" fill="none"/>
 </g>
 <g>
  <title>Layer 1</title>
  <g stroke="null" id="svg_4">
   <path stroke="null" d="m20.17281,15.22095l0,7.02432l7.40886,0l0,-7.02432l4.02372,0l0,18.30426l-4.02372,0l0,-7.89479l-7.40886,0l0,7.89479l-4.02489,0l0,-18.30426l4.02489,0z" id="svg_5"/>
   <path stroke="null" d="m46.86011,32.8843c-1.21423,0.7015 -2.69297,1.05109 -4.43507,1.05109c-1.40067,0 -2.6615,-0.24355 -3.78017,-0.73064c-1.11984,-0.48708 -2.06372,-1.15829 -2.83397,-2.0136s-1.35872,-1.85863 -1.7689,-3.01226c-0.41135,-1.15363 -0.61527,-2.39698 -0.61527,-3.73007c0,-1.36687 0.20509,-2.63587 0.61527,-3.80698c0.41018,-1.16994 0.99865,-2.19189 1.7689,-3.06352s1.71413,-1.55449 2.83397,-2.0509c1.11867,-0.49525 2.3795,-0.74345 3.78017,-0.74345c1.41815,0 2.68248,0.2482 3.79416,0.74345c1.11052,0.49524 2.0509,1.17927 2.81998,2.0509c0.76793,0.87163 1.35872,1.89358 1.7689,3.06352c0.41018,1.17111 0.61527,2.44011 0.61527,3.80698c0,1.33308 -0.20625,2.57295 -0.61527,3.71725s-0.99981,2.15345 -1.7689,3.02508l2.28163,2.07653l-1.87145,1.94835l-2.58925,-2.33173zm-0.58964,-4.22997c0.34143,-0.46146 0.61411,-1.03477 0.8192,-1.71763c0.20625,-0.68402 0.3088,-1.5137 0.3088,-2.48671c0,-0.80288 -0.08973,-1.58013 -0.26918,-2.3329c-0.17829,-0.75161 -0.46495,-1.42281 -0.85765,-2.01244c-0.39387,-0.58963 -0.90659,-1.05924 -1.53817,-1.40999c-0.63275,-0.34959 -1.40184,-0.52555 -2.30726,-0.52555c-0.90543,0 -1.67568,0.1748 -2.3061,0.52555c-0.63274,0.34958 -1.1443,0.81919 -1.53817,1.40649c-0.3927,0.58847 -0.67936,1.25851 -0.85765,2.00895c-0.17945,0.75044 -0.26918,1.52652 -0.26918,2.32823c0,0.76792 0.08973,1.51254 0.26918,2.23734c0.17829,0.72481 0.46495,1.37737 0.85765,1.95768c0.39387,0.58031 0.90542,1.04409 1.53817,1.39368c0.63159,0.35075 1.40067,0.52438 2.3061,0.52438c0.42766,0 0.7516,-0.01515 0.97301,-0.04545s0.43581,-0.09206 0.64207,-0.18528l-1.71879,-1.56381l1.87144,-1.99962l2.07653,1.89708z" id="svg_6"/>
   <path stroke="null" d="m58.01186,18.60493l0,-3.38398l14.99719,0l0,3.38398l-5.48615,0l0,14.92028l-4.02489,0l0,-14.92028l-5.48615,0z" id="svg_7"/>
   <path stroke="null" d="m74.90613,20.27128l0,2.46108l0.05127,0c0.17013,-0.41018 0.40202,-0.79006 0.69217,-1.14081c0.29016,-0.34959 0.62343,-0.64906 0.99982,-0.89727c0.37522,-0.24704 0.77724,-0.43931 1.2049,-0.57682c0.42649,-0.13633 0.87047,-0.20508 1.33308,-0.20508c0.23889,0 0.50457,0.04311 0.79473,0.12818l0,3.38398c-0.17014,-0.0338 -0.37523,-0.06409 -0.61411,-0.08973c-0.24005,-0.02564 -0.47077,-0.03845 -0.69334,-0.03845c-0.66538,0 -1.23054,0.1107 -1.69083,0.33327c-0.46145,0.22257 -0.83434,0.52554 -1.11517,0.91008c-0.282,0.38455 -0.48359,0.83201 -0.60362,1.3459c-0.12002,0.51156 -0.17945,1.06857 -0.17945,1.66636l0,5.97324l-3.63918,0l0,-13.25393l3.45973,0z" id="svg_8"/>
   <path stroke="null" d="m89.46633,33.52521l0,-1.84581l-0.07574,0c-0.46145,0.76908 -1.06041,1.32492 -1.79454,1.66752c-0.73529,0.34143 -1.4869,0.51156 -2.25715,0.51156c-0.97418,0 -1.7724,-0.12818 -2.39699,-0.38455s-1.11517,-0.61876 -1.47408,-1.08954c-0.36007,-0.4696 -0.61177,-1.04292 -0.75627,-1.71879c-0.14566,-0.6747 -0.2179,-1.42281 -0.2179,-2.24317l0,-8.15231l3.63917,0l0,7.48461c0,1.0942 0.17013,1.91106 0.51273,2.44942c0.34143,0.53836 0.94854,0.80754 1.82017,0.80754c0.99049,0 1.7083,-0.29598 2.15344,-0.88561c0.44397,-0.58964 0.66654,-1.55915 0.66654,-2.90971l0,-6.94625l3.64034,0l0,13.25392l-3.45972,0l0,0.00117z" id="svg_9"/>
   <path stroke="null" d="m97.83655,30.22979c0.16198,0.282 0.37056,0.51272 0.62809,0.69334c0.25636,0.17829 0.55118,0.3123 0.88445,0.39736s0.67936,0.12702 1.03827,0.12702c0.25636,0 0.52554,-0.02913 0.80754,-0.08856c0.282,-0.0606 0.53836,-0.15499 0.76908,-0.282c0.22957,-0.12818 0.42184,-0.29948 0.57565,-0.51273c0.15499,-0.21324 0.23073,-0.48242 0.23073,-0.80637c0,-0.54768 -0.36357,-0.9567 -1.08954,-1.2317c-0.72713,-0.27268 -1.73977,-0.54652 -3.03789,-0.82036c-0.52904,-0.12003 -1.04642,-0.25986 -1.55099,-0.42184s-0.95204,-0.37522 -1.34474,-0.64207c-0.39386,-0.26452 -0.70965,-0.59779 -0.94854,-0.99864s-0.3589,-0.89261 -0.3589,-1.47409c0,-0.85415 0.16663,-1.55448 0.4999,-2.10217c0.33327,-0.54651 0.77258,-0.97767 1.32027,-1.29462s1.16178,-0.53837 1.8458,-0.66655s1.38436,-0.19227 2.10217,-0.19227c0.71782,0 1.41466,0.06875 2.08936,0.20509c0.67586,0.13634 1.27831,0.36706 1.80851,0.69218c0.52904,0.32511 0.96952,0.75627 1.32027,1.29463c0.35075,0.53836 0.55933,1.21772 0.62809,2.03808l-3.46089,0c-0.05244,-0.7015 -0.31696,-1.17461 -0.79589,-1.42281c-0.47777,-0.24704 -1.04293,-0.37173 -1.69199,-0.37173c-0.20509,0 -0.42649,0.01282 -0.66538,0.03846c-0.24005,0.02563 -0.45795,0.08157 -0.65489,0.16663c-0.19693,0.08623 -0.36356,0.20975 -0.4999,0.37173c-0.13751,0.16314 -0.20509,0.38104 -0.20509,0.65372c0,0.32511 0.12002,0.58963 0.3589,0.79472s0.55118,0.37173 0.93573,0.49991c0.38454,0.12818 0.82502,0.24238 1.32026,0.34492c0.49641,0.10255 0.99981,0.21441 1.5137,0.33327c0.52904,0.12003 1.04526,0.26569 1.55099,0.43582c0.50341,0.17013 0.95204,0.39736 1.34474,0.67936c0.39387,0.282 0.70849,0.63275 0.94854,1.05108c0.23888,0.41834 0.35891,0.93573 0.35891,1.55099c0,0.87164 -0.17479,1.60227 -0.52554,2.1919s-0.80638,1.0639 -1.37154,1.42281c-0.56283,0.35891 -1.20956,0.61061 -1.93554,0.75627c-0.72597,0.14449 -1.46592,0.21791 -2.21636,0.21791c-0.76909,0 -1.52186,-0.07575 -2.25716,-0.23073c-0.73529,-0.15382 -1.38785,-0.41018 -1.96116,-0.76792c-0.57332,-0.36007 -1.04293,-0.83434 -1.41,-1.42398s-0.56866,-1.32842 -0.60361,-2.21636l3.46205,0c0,0.39153 0.08157,0.72946 0.24354,1.0103z" id="svg_10"/>
   <path stroke="null" d="m114.89629,20.27128l0,2.43544l-2.665,0l0,6.56287c0,0.61411 0.10254,1.02545 0.30763,1.23054s0.61527,0.30764 1.23054,0.30764c0.20509,0 0.40202,-0.00816 0.58963,-0.02447s0.36707,-0.04312 0.53836,-0.07691l0,2.81998c-0.30763,0.05127 -0.64906,0.08507 -1.02544,0.10255c-0.37522,0.01748 -0.74345,0.02563 -1.1012,0.02563c-0.56399,0 -1.09886,-0.03845 -1.60226,-0.11536c-0.50573,-0.07691 -0.94854,-0.22607 -1.33425,-0.4498c-0.38454,-0.2214 -0.68868,-0.53836 -0.91008,-0.94737c-0.22141,-0.41135 -0.33211,-0.94855 -0.33211,-1.61625l0,-7.81788l-2.20588,0l0,-2.43544l2.20588,0l0,-3.97361l3.64034,0l0,3.97361l2.66384,0l0,-0.00117z" id="svg_11"/>
  </g>
  <text stroke="#000" transform="matrix(1.1717896899467937,0,0,1.1717896899467937,-17.321939238024633,-13.820765676698793) " fill="#000000" stroke-width="0" x="119.098204" y="40.417384" id="svg_12" font-size="21" font-family="Helvetica, Arial, sans-serif" text-anchor="start" xml:space="preserve" font-weight="normal">Stock</text>
  <text stroke="#000" transform="matrix(1.162588964167493,0,0,1.162588964167493,-128.56812025023234,-11.99912508131704) " fill="#000000" stroke-width="0" stroke-opacity="null" fill-opacity="null" x="272.27045" y="39.300501" id="svg_13" font-size="21" font-family="Helvetica, Arial, sans-serif" text-anchor="start" xml:space="preserve">Checker</text>
 </g>
</svg>